<svg width="21" height="21" viewBox="0 0 21 21" fill="none" xmlns="http://www.w3.org/2000/svg">
<path fill-rule="evenodd" clip-rule="evenodd" d="M9.50618 0.882379C9.86729 0.586733 10.3729 0.586733 10.7341 0.882379L19.734 8.2508C20.17 8.60772 20.2485 9.26906 19.9094 9.72795C19.5704 10.1868 18.9421 10.2695 18.5061 9.91259L18.12 9.59649V18.5554C18.12 19.7181 17.2246 20.6606 16.12 20.6606H4.1201C3.01553 20.6606 2.12011 19.7181 2.12011 18.5554V9.59656L1.7341 9.91259C1.29815 10.2695 0.669878 10.1868 0.33081 9.72795C-0.00825851 9.26906 0.0702756 8.60772 0.506221 8.2508L9.50618 0.882379ZM9.12008 13.2922C8.56779 13.2922 8.12008 13.7635 8.12008 14.3449V20.6606H12.1201V14.3449C12.1201 13.7635 11.6723 13.2922 11.1201 13.2922H9.12008Z" fill="#9FC3E3"/>
</svg>
