<?xml version="1.0" standalone="no"?>
<!DOCTYPE svg PUBLIC "-//W3C//DTD SVG 20010904//EN"
 "http://www.w3.org/TR/2001/REC-SVG-20010904/DTD/svg10.dtd">
<svg version="1.0" xmlns="http://www.w3.org/2000/svg"
 width="344.000000pt" height="195.000000pt" viewBox="0 0 344.000000 195.000000"
 preserveAspectRatio="xMidYMid meet">

<g transform="translate(0.000000,195.000000) scale(0.100000,-0.100000)"
fill="#000000" stroke="none">
<path d="M1262 1778 c-6 -7 -24 -56 -42 -108 -34 -104 -48 -211 -32 -250 9
-21 11 -16 11 34 1 74 23 156 65 250 19 41 32 77 28 80 -9 9 -19 7 -30 -6z"/>
<path d="M1380 1722 c0 -5 13 -21 30 -37 16 -16 28 -31 25 -33 -7 -7 53 -89
70 -95 8 -4 15 -11 15 -17 0 -6 -5 -8 -11 -4 -12 7 10 -35 49 -94 16 -26 22
-30 22 -16 0 23 -62 146 -92 184 -13 16 -36 47 -52 69 -28 38 -56 60 -56 43z"/>
<path d="M1350 1711 c0 -4 9 -20 20 -34 11 -14 20 -38 20 -54 0 -17 3 -33 8
-37 4 -4 7 -11 7 -14 0 -4 13 -25 29 -47 17 -22 41 -55 54 -73 34 -47 38 -33
8 26 -14 27 -23 52 -19 55 3 3 -4 18 -16 33 -12 15 -31 48 -42 73 -21 47 -46
81 -61 81 -4 0 -8 -4 -8 -9z"/>
<path d="M695 1580 c-3 -5 2 -10 13 -10 30 0 58 -38 116 -163 82 -175 150
-232 252 -212 54 10 104 37 104 55 0 26 42 41 84 29 27 -7 42 -6 63 4 16 8 43
18 60 22 18 3 35 10 38 15 7 11 -57 110 -72 110 -7 0 -13 -5 -13 -10 0 -6 -3
-9 -7 -9 -21 3 -23 -4 -6 -31 15 -26 15 -32 4 -39 -7 -5 -11 -13 -7 -19 5 -9
-42 -32 -66 -32 -4 0 -17 14 -27 31 -11 18 -22 26 -25 20 -4 -6 -18 -11 -31
-11 -13 0 -37 -11 -53 -25 -23 -19 -41 -25 -79 -25 -64 0 -89 22 -139 121 -68
137 -117 189 -178 189 -14 0 -28 -4 -31 -10z"/>
<path d="M662 1318 c-7 -28 -6 -35 12 -45 12 -6 21 -11 22 -10 1 1 4 21 8 45
6 37 4 42 -14 42 -14 0 -22 -10 -28 -32z"/>
<path d="M1616 1313 c-6 -14 -5 -15 5 -6 7 7 10 15 7 18 -3 3 -9 -2 -12 -12z"/>
<path d="M637 1218 c-5 -34 13 -66 31 -54 16 10 24 69 10 78 -24 15 -36 8 -41
-24z"/>
<path d="M1611 1216 c-10 -12 -8 -13 8 -9 12 3 18 9 15 14 -7 12 -10 11 -23
-5z"/>
<path d="M1380 1175 c35 -26 50 -31 50 -17 0 8 -63 42 -77 42 -4 0 8 -11 27
-25z"/>
<path d="M1824 1185 c11 -8 25 -15 30 -15 6 0 2 7 -8 15 -11 8 -25 15 -30 15
-6 0 -2 -7 8 -15z"/>
<path d="M1603 1177 c-15 -6 -23 -19 -23 -34 0 -17 5 -23 23 -22 12 0 16 3 10
6 -20 8 -15 33 9 42 12 4 17 10 12 13 -5 3 -19 1 -31 -5z"/>
<path d="M603 1160 c-26 -64 -25 -77 7 -90 36 -15 39 -13 47 33 4 29 2 36 -15
41 -11 4 -23 15 -25 24 -3 13 -6 12 -14 -8z"/>
<path d="M1220 1161 c0 -9 30 -24 36 -18 2 1 -6 8 -16 15 -11 7 -20 8 -20 3z"/>
<path d="M1540 1135 c-10 -13 -9 -15 9 -15 11 0 21 4 21 9 0 18 -18 21 -30 6z"/>
<path d="M2004 1141 c3 -5 -4 -11 -15 -14 -18 -5 -21 -11 -16 -36 6 -26 3 -33
-21 -45 -28 -14 -62 -14 -97 -2 l-20 8 20 -17 c20 -17 20 -17 -2 -12 -12 3
-23 1 -25 -4 -2 -5 -24 -10 -49 -11 -34 -2 -45 -6 -42 -15 3 -7 0 -13 -6 -13
-9 0 -9 -5 -1 -20 17 -31 -24 -26 -44 5 -15 23 -22 25 -102 25 -111 0 -216 24
-284 64 -30 18 -76 38 -102 45 -25 6 -59 16 -75 22 -53 22 -65 22 -57 -3 7
-25 44 -77 82 -120 15 -16 19 -26 10 -25 -61 2 -64 -1 -82 -115 -14 -83 -12
-94 19 -100 17 -3 22 7 38 73 14 59 22 76 35 75 9 0 16 4 15 11 -1 6 4 16 11
22 10 9 22 4 51 -22 l37 -33 -20 -40 c-11 -21 -45 -73 -75 -114 -63 -86 -62
-89 38 -98 58 -4 63 -3 70 17 8 27 58 53 104 54 20 0 77 -3 126 -7 79 -7 104
-5 200 17 160 37 155 33 218 140 51 85 59 94 82 89 14 -2 25 0 25 5 0 6 29 9
68 7 76 -3 113 3 91 17 -7 4 -53 6 -101 4 -49 -2 -88 0 -88 4 0 4 9 16 21 27
17 15 20 27 16 57 -6 41 -31 87 -48 87 -6 0 -8 -4 -5 -9z m-99 -160 c6 -20
-61 -146 -73 -138 -4 2 -22 9 -39 16 -37 15 -45 36 -10 26 12 -3 17 -3 11 2
-6 4 -14 20 -17 34 -6 22 -3 25 16 25 16 -1 23 6 25 22 2 16 10 22 27 22 32 0
36 -19 13 -57 -11 -18 -17 -33 -15 -33 13 0 47 69 41 84 -3 9 -1 16 4 16 6 0
13 -9 17 -19z m-102 -22 c-5 -5 -20 -5 -33 -2 l-25 7 25 6 c28 8 46 2 33 -11z
m-438 -89 c13 -6 15 -9 5 -9 -8 0 -22 4 -30 9 -18 12 -2 12 25 0z m375 0 c-8
-5 -26 -9 -40 -9 -23 1 -23 2 5 9 43 11 52 11 35 0z m-323 -16 c-3 -3 -12 -4
-19 -1 -8 3 -5 6 6 6 11 1 17 -2 13 -5z m250 0 c-3 -3 -12 -4 -19 -1 -8 3 -5
6 6 6 11 1 17 -2 13 -5z m-79 -11 c-16 -2 -40 -2 -55 0 -16 2 -3 4 27 4 30 0
43 -2 28 -4z"/>
<path d="M1820 880 c-9 -6 -10 -10 -3 -10 6 0 15 5 18 10 8 12 4 12 -15 0z"/>
<path d="M1740 1109 c0 -5 15 -9 33 -9 33 0 66 -15 56 -24 -3 -3 -21 -1 -40 4
-56 16 -67 10 -20 -11 50 -22 71 -19 71 10 0 13 -8 22 -22 25 -55 11 -78 13
-78 5z"/>
<path d="M870 1075 c-17 -21 -9 -27 13 -10 10 7 14 16 9 19 -5 3 -15 -1 -22
-9z"/>
<path d="M1700 1072 c0 -11 98 -47 106 -40 2 3 -15 10 -38 17 -24 7 -49 18
-55 23 -9 7 -13 7 -13 0z"/>
<path d="M860 1021 c-25 -8 -46 -16 -47 -16 -2 -1 -5 -15 -8 -31 -8 -42 24
-78 58 -65 19 7 28 22 37 60 6 28 10 54 8 59 -1 5 -23 2 -48 -7z"/>
<path d="M2270 1026 c0 -3 33 -15 73 -26 39 -12 95 -27 122 -35 45 -13 261
-35 333 -35 60 1 -7 20 -104 29 -145 14 -337 46 -406 67 -10 3 -18 3 -18 0z"/>
<path d="M2150 886 c0 -15 3 -17 9 -8 6 10 10 10 20 -2 18 -21 69 -30 86 -16
24 20 18 27 -32 38 -67 15 -83 12 -83 -12z"/>
<path d="M2964 829 c-15 -16 -19 -35 -18 -81 l1 -59 -66 -33 c-110 -55 -242
-95 -501 -149 -236 -50 -289 -53 -493 -28 -100 12 -245 33 -323 47 -168 29
-182 29 -207 7 -50 -46 -431 -58 -632 -19 -108 21 -219 78 -261 133 l-33 43 6
-38 c22 -141 141 -225 343 -240 160 -13 481 12 571 43 33 12 39 12 53 -4 9
-10 33 -23 54 -29 108 -33 819 -45 962 -17 171 33 434 143 513 214 54 49 81
109 72 164 -11 64 -18 72 -41 46z"/>
<path d="M2040 660 c66 -79 96 -94 141 -70 28 15 9 46 -33 55 -60 12 -68 16
-68 34 0 13 -10 21 -31 25 -52 10 -52 8 -9 -44z"/>
</g>
</svg>
